<svg version="1.1" id="Layer_1" xmlns="http://www.w3.org/2000/svg" xmlns:xlink="http://www.w3.org/1999/xlink" viewBox="0 0 502 502" xml:space="preserve" fill="#000000"><g id="SVGRepo_bgCarrier" stroke-width="0"></g><g id="SVGRepo_tracerCarrier" stroke-linecap="round" stroke-linejoin="round"></g><g id="SVGRepo_iconCarrier"> <g> <path style="fill:#29ABE2;" d="M397.948,30.529H104.052c-22.343,0-40.456,18.113-40.456,40.456V189.23h374.808V70.985 C438.404,48.642,420.291,30.529,397.948,30.529z"></path> <path style="fill:#CCCCCC;" d="M437.544,189.23H64.456c-25.605,0-46.362,20.757-46.362,46.362v148.295h465.813V235.592 C483.906,209.987,463.149,189.23,437.544,189.23z"></path> <circle style="fill:#FBB03B;" cx="104.261" cy="300.032" r="30.059"></circle> <circle style="fill:#FBB03B;" cx="397.997" cy="300.032" r="30.059"></circle> <g> <path style="fill:#333333;" d="M83.079,471.471h-8.346c-17.977,0-32.55-14.573-32.55-32.55v-54.795h73.446v54.795 C115.629,456.898,101.056,471.471,83.079,471.471z"></path> <path style="fill:#333333;" d="M423.091,471.471h-8.346c-17.977,0-32.55-14.573-32.55-32.55v-54.795h73.446v54.795 C455.641,456.898,441.068,471.471,423.091,471.471z"></path> </g> <rect x="10" y="150.332" style="fill:#CCCCCC;" width="53.515" height="38.818"></rect> <g> <rect x="438.485" y="150.332" style="fill:#CCCCCC;" width="53.515" height="38.818"></rect> <g> <path d="M104.261,259.973c-22.089,0-40.06,17.971-40.06,40.06s17.971,40.059,40.06,40.059s40.06-17.97,40.06-40.059 S126.35,259.973,104.261,259.973z M104.261,320.091c-11.061,0-20.06-8.999-20.06-20.059c0-11.061,8.999-20.06,20.06-20.06 s20.06,8.999,20.06,20.06C124.32,311.092,115.321,320.091,104.261,320.091z"></path> <path d="M397.997,259.973c-22.089,0-40.06,17.971-40.06,40.06s17.971,40.059,40.06,40.059s40.06-17.97,40.06-40.059 S420.086,259.973,397.997,259.973z M397.997,320.091c-11.061,0-20.06-8.999-20.06-20.059c0-11.061,8.999-20.06,20.06-20.06 s20.06,8.999,20.06,20.06C418.057,311.092,409.058,320.091,397.997,320.091z"></path> <path d="M254.874,75.448c5.522,0,10-4.477,10-10c0-5.523-4.478-10-10-10H103.977c-5.522,0-10,4.477-10,10c0,5.523,4.478,10,10,10 H254.874z"></path> <path d="M287.878,75.448h15.309c5.522,0,10-4.477,10-10c0-5.523-4.478-10-10-10h-15.309c-5.522,0-10,4.477-10,10 C277.878,70.971,282.355,75.448,287.878,75.448z"></path> <path d="M302.703,334.742H199.297c-5.522,0-10,4.477-10,10s4.478,10,10,10h103.406c5.522,0,10-4.477,10-10 S308.226,334.742,302.703,334.742z"></path> <path d="M492,140.332h-43.596V70.985c0-27.821-22.635-50.456-50.456-50.456H104.052c-27.821,0-50.456,22.634-50.456,50.456 v69.347H10c-5.522,0-10,4.477-10,10v38.818c0,5.523,4.478,10,10,10h11.51c-8.358,9.834-13.417,22.556-13.417,36.443v148.295 c0,5.523,4.478,10,10,10h14.089v45.034c0,23.462,19.088,42.55,42.55,42.55h8.347c23.462,0,42.55-19.088,42.55-42.55v-45.034 h246.565v45.034c0,23.462,19.088,42.55,42.551,42.55h8.346c23.462,0,42.55-19.088,42.55-42.55v-45.034h18.266 c5.522,0,10-4.477,10-10V235.592c0-13.887-5.059-26.608-13.417-36.443H492c5.522,0,10-4.477,10-10v-38.818 C502,144.809,497.522,140.332,492,140.332z M105.629,438.921c0,12.434-10.116,22.55-22.55,22.55h-8.347 c-12.434,0-22.55-10.116-22.55-22.55v-44.795h53.446v44.795H105.629z M445.641,438.921c0,12.434-10.116,22.55-22.55,22.55h-8.346 c-12.435,0-22.551-10.116-22.551-22.55v-44.795h53.446L445.641,438.921L445.641,438.921z M73.596,70.985 c0-16.793,13.662-30.456,30.456-30.456h293.896c16.794,0,30.456,13.662,30.456,30.456V179.23h-87.877l48.381-13.649 c5.29-1.587,8.292-7.162,6.705-12.452s-7.16-8.292-12.451-6.705L273.81,179.23h-93.741l48.747-13.833 c5.29-1.587,8.292-7.162,6.705-12.452s-7.16-8.292-12.451-6.705l-109.964,32.99h-39.51V70.985z M20,160.332h33.516v18.818H20 V160.332z M473.906,373.887H28.094V235.592c0-20.05,16.313-36.362,36.362-36.362h373.088c20.05,0,36.362,16.312,36.362,36.362 V373.887z M482,179.149h-33.516v-18.818H482V179.149z"></path> </g> </g> </g> </g></svg>
