<svg fill="#000000" height="200px" width="200px" version="1.1" id="Capa_1" xmlns="http://www.w3.org/2000/svg" xmlns:xlink="http://www.w3.org/1999/xlink" viewBox="0 0 230.541 230.541" xml:space="preserve"><g id="SVGRepo_bgCarrier" stroke-width="0"></g><g id="SVGRepo_tracerCarrier" stroke-linecap="round" stroke-linejoin="round"></g><g id="SVGRepo_iconCarrier"> <path d="M189.367,182.416l-20.463,0.161c1.013-12.651,4.942-32.595,17.864-56.124c14.721-26.804,15.59-53.616,2.446-75.497 c-14.178-23.603-43.167-38.578-73.801-38.237h-0.287c-30.643-0.359-59.623,14.634-73.801,38.237 c-13.144,21.881-12.274,48.693,2.446,75.497c12.989,23.653,16.92,43.495,17.908,56.124l-20.507-0.161l-9.397-20.355L0,176.73 l18.701,40.51l74.76,0.589l2.564-14.586c0.296-1.681,6.911-41.768-21.575-93.638c-8.723-15.884-9.773-29.553-3.12-40.628 c7.661-12.755,25.544-21.462,43.455-21.261l0.116,0.002l0.854-0.002c17.947-0.213,35.794,8.506,43.455,21.261 c6.653,11.075,5.603,24.744-3.12,40.628c-28.486,51.87-21.871,91.957-21.575,93.638l2.564,14.586l74.76-0.589l18.701-40.51 l-31.777-14.67L189.367,182.416z"></path> </g></svg>
